<svg width="16" height="17" viewBox="0 0 16 17" fill="none" xmlns="http://www.w3.org/2000/svg">
<g clip-path="url(#clip0)">
<path d="M11.3334 14.0811V12.7478C11.3334 12.0405 11.0524 11.3622 10.5523 10.8621C10.0522 10.362 9.37393 10.0811 8.66669 10.0811H3.33335C2.62611 10.0811 1.94783 10.362 1.44774 10.8621C0.947639 11.3622 0.666687 12.0405 0.666687 12.7478V14.0811" stroke="#4F4F4F" stroke-width="1.5" stroke-linecap="round" stroke-linejoin="round"/>
<path d="M5.99998 7.41442C7.47274 7.41442 8.66665 6.22051 8.66665 4.74775C8.66665 3.27499 7.47274 2.08109 5.99998 2.08109C4.52722 2.08109 3.33331 3.27499 3.33331 4.74775C3.33331 6.22051 4.52722 7.41442 5.99998 7.41442Z" stroke="#4F4F4F" stroke-width="1.5" stroke-linecap="round" stroke-linejoin="round"/>
<path d="M15.3333 14.0811V12.7478C15.3329 12.1569 15.1362 11.5829 14.7742 11.116C14.4122 10.649 13.9054 10.3155 13.3333 10.1678" stroke="#4F4F4F" stroke-width="2" stroke-linecap="round" stroke-linejoin="round"/>
<path d="M10.6667 2.16776C11.2403 2.31462 11.7487 2.64822 12.1118 3.11596C12.4748 3.5837 12.6719 4.15897 12.6719 4.75109C12.6719 5.3432 12.4748 5.91848 12.1118 6.38621C11.7487 6.85395 11.2403 7.18755 10.6667 7.33442" stroke="#4F4F4F" stroke-width="2" stroke-linecap="round" stroke-linejoin="round"/>
</g>
<defs>
<clipPath id="clip0">
<rect width="16" height="16" fill="white" transform="translate(0 0.0810852)"/>
</clipPath>
</defs>
</svg>
