<svg width="16" height="17" viewBox="0 0 16 17" fill="none" xmlns="http://www.w3.org/2000/svg">
<g clip-path="url(#clip0)">
<path d="M11.3334 14.0811V12.7477C11.3334 12.0405 11.0524 11.3622 10.5523 10.8621C10.0522 10.362 9.37393 10.0811 8.66669 10.0811H3.33335C2.62611 10.0811 1.94783 10.362 1.44774 10.8621C0.947639 11.3622 0.666687 12.0405 0.666687 12.7477V14.0811" stroke="#F2F2F2" stroke-width="1.5" stroke-linecap="round" stroke-linejoin="round"/>
<path d="M5.99998 7.41439C7.47274 7.41439 8.66665 6.22048 8.66665 4.74772C8.66665 3.27496 7.47274 2.08105 5.99998 2.08105C4.52722 2.08105 3.33331 3.27496 3.33331 4.74772C3.33331 6.22048 4.52722 7.41439 5.99998 7.41439Z" stroke="#F2F2F2" stroke-width="1.5" stroke-linecap="round" stroke-linejoin="round"/>
<path d="M15.3333 14.0811V12.7477C15.3329 12.1569 15.1362 11.5829 14.7742 11.1159C14.4122 10.649 13.9054 10.3154 13.3333 10.1677" stroke="#F2F2F2" stroke-width="2" stroke-linecap="round" stroke-linejoin="round"/>
<path d="M10.6667 2.16772C11.2403 2.31459 11.7487 2.64819 12.1118 3.11593C12.4748 3.58367 12.6719 4.15894 12.6719 4.75106C12.6719 5.34317 12.4748 5.91844 12.1118 6.38618C11.7487 6.85392 11.2403 7.18752 10.6667 7.33439" stroke="#F2F2F2" stroke-width="2" stroke-linecap="round" stroke-linejoin="round"/>
</g>
<defs>
<clipPath id="clip0">
<rect width="16" height="16" fill="white" transform="translate(0 0.0810547)"/>
</clipPath>
</defs>
</svg>
