<svg width="21" height="21" viewBox="0 0 21 21" fill="none" xmlns="http://www.w3.org/2000/svg">
<path d="M9.5 13.358H9.449C9.19731 13.358 8.95593 13.258 8.77796 13.08C8.59998 12.9021 8.5 12.6607 8.5 12.409C8.5 12.1438 8.39464 11.8894 8.20711 11.7019C8.01957 11.5144 7.76522 11.409 7.5 11.409C7.23478 11.409 6.98043 11.5144 6.79289 11.7019C6.60536 11.8894 6.5 12.1438 6.5 12.409C6.5 13.1911 6.8107 13.9412 7.36374 14.4943C7.91679 15.0473 8.66688 15.358 9.449 15.358H9.5V16.358C9.5 16.6232 9.60536 16.8776 9.79289 17.0651C9.98043 17.2526 10.2348 17.358 10.5 17.358C10.7652 17.358 11.0196 17.2526 11.2071 17.0651C11.3946 16.8776 11.5 16.6232 11.5 16.358V15.358C12.2956 15.358 13.0587 15.0419 13.6213 14.4793C14.1839 13.9167 14.5 13.1537 14.5 12.358C14.5 11.5624 14.1839 10.7993 13.6213 10.2367C13.0587 9.67407 12.2956 9.358 11.5 9.358V7.358H11.522C12.062 7.358 12.5 7.796 12.5 8.336C12.5 8.60122 12.6054 8.85557 12.7929 9.04311C12.9804 9.23065 13.2348 9.336 13.5 9.336C13.7652 9.336 14.0196 9.23065 14.2071 9.04311C14.3946 8.85557 14.5 8.60122 14.5 8.336C14.5 7.54619 14.1862 6.78872 13.6278 6.23024C13.0693 5.67175 12.3118 5.358 11.522 5.358H11.5V4.358C11.5 4.09278 11.3946 3.83843 11.2071 3.65089C11.0196 3.46336 10.7652 3.358 10.5 3.358C10.2348 3.358 9.98043 3.46336 9.79289 3.65089C9.60536 3.83843 9.5 4.09278 9.5 4.358V5.358C8.70435 5.358 7.94129 5.67407 7.37868 6.23668C6.81607 6.79929 6.5 7.56235 6.5 8.358C6.5 9.15365 6.81607 9.91671 7.37868 10.4793C7.94129 11.0419 8.70435 11.358 9.5 11.358V13.358ZM11.5 13.358V11.358C11.7652 11.358 12.0196 11.4634 12.2071 11.6509C12.3946 11.8384 12.5 12.0928 12.5 12.358C12.5 12.6232 12.3946 12.8776 12.2071 13.0651C12.0196 13.2526 11.7652 13.358 11.5 13.358ZM9.5 7.358V9.358C9.23478 9.358 8.98043 9.25264 8.79289 9.06511C8.60536 8.87757 8.5 8.62322 8.5 8.358C8.5 8.09279 8.60536 7.83843 8.79289 7.6509C8.98043 7.46336 9.23478 7.358 9.5 7.358ZM10.5 20.358C4.977 20.358 0.5 15.881 0.5 10.358C0.5 4.835 4.977 0.358002 10.5 0.358002C16.023 0.358002 20.5 4.835 20.5 10.358C20.5 15.881 16.023 20.358 10.5 20.358Z" fill="#FFAF13"/>
</svg>
