<svg width="18" height="18" viewBox="0 0 18 18" fill="none" xmlns="http://www.w3.org/2000/svg">
<path d="M17.125 16.2413L12.405 11.5213C13.5392 10.1596 14.1048 8.41303 13.9842 6.64495C13.8635 4.87687 13.0658 3.22338 11.757 2.02846C10.4483 0.833537 8.72921 0.189183 6.95747 0.22944C5.18573 0.269697 3.49772 0.991466 2.24458 2.2446C0.991451 3.49773 0.269682 5.18574 0.229425 6.95748C0.189167 8.72922 0.833522 10.4483 2.02844 11.757C3.22337 13.0658 4.87685 13.8635 6.64494 13.9842C8.41302 14.1049 10.1596 13.5393 11.5212 12.405L16.2412 17.125L17.125 16.2413ZM1.5 7.12501C1.5 6.01249 1.8299 4.92496 2.44798 3.99993C3.06606 3.0749 3.94457 2.35393 4.9724 1.92819C6.00024 1.50245 7.13124 1.39105 8.22238 1.60809C9.31352 1.82514 10.3158 2.36087 11.1025 3.14754C11.8891 3.93421 12.4249 4.93649 12.6419 6.02763C12.859 7.11877 12.7476 8.24977 12.3218 9.27761C11.8961 10.3054 11.1751 11.1839 10.2501 11.802C9.32505 12.4201 8.23752 12.75 7.125 12.75C5.63366 12.7484 4.20388 12.1552 3.14935 11.1007C2.09481 10.0461 1.50165 8.61635 1.5 7.12501Z" fill="#828282"/>
</svg>
